PathFileType	4	(X/Y/Z)	10_2_53_p1_0-341_filt_butterworth.trc
DataRate	CameraRate	NumFrames	NumMarkers	Units	OrigDataRate	OrigDataStartFrame	OrigNumFrames
59.0	59.0	7	27	m	59.0	42	341
Frame#	Time	RHip			RKnee			RAnkle			RBigToe			RSmallToe			RHeel			LHip			LKnee			LAnkle			LBigToe			LSmallToe			LHeel			Neck			Head			Nose			RShoulder			RElbow			RWrist			RThumb			RIndex			RPinky			LShoulder			LElbow			LWrist			LThumb			LIndex			LPinky			
		X1	Y1	Z1	X2	Y2	Z2	X3	Y3	Z3	X4	Y4	Z4	X5	Y5	Z5	X6	Y6	Z6	X7	Y7	Z7	X8	Y8	Z8	X9	Y9	Z9	X10	Y10	Z10	X11	Y11	Z11	X12	Y12	Z12	X13	Y13	Z13	X14	Y14	Z14	X15	Y15	Z15	X16	Y16	Z16	X17	Y17	Z17	X18	Y18	Z18	X19	Y19	Z19	X20	Y20	Z20	X21	Y21	Z21	X22	Y22	Z22	X23	Y23	Z23	X24	Y24	Z24	X25	Y25	Z25	X26	Y26	Z26	X27	Y27	Z27	
42	0.711864406779661	0.3228739318182433	0.5434055079269863	1.0185686743589135	0.3181344800203206	0.6571049698923539	1.4085947145882731	0.3236527221118824	0.7826194633883997	1.7702404683036501	0.2860815167777142	0.6060656623735781	1.8584800815017104	0.3583774242851228	0.6574508010321048	1.854868093265804	0.2865360734348932	0.883383838708202	1.840760441966911	0.12326425683996246	0.5418090408835431	1.01931197878377	0.10749553990142709	0.6287211084415167	1.408782376218664	0.09403973232016916	0.7446655154573678	1.776374862021501	0.13382337482190207	0.5858446761515986	1.863377261919474	0.06260809093836764	0.6236641506958419	1.8476657667344158	0.11213870380586682	0.8426498249540005	1.8269166357036837	0.23492913663133785	0.386372758696962	0.45460579802511003	0.24973283608139712	0.27932511493635204	0.21982907335360272	0.26283134803838387	0.23235110886279584	0.3571620475023382	0.3989320270174554	0.42613615614148925	0.5182364357059622	0.5792983909266927	0.43954274474757216	0.722993706346925	0.43073346278111546	0.4321907612979885	0.9088366214622287	0.3118100848930324	0.44735215338024786	0.9343320769607493	0.30816876688859324	0.45416054253579397	0.971053756839729	0.32764379679390787	0.47788359036087763	0.9988983096099532	0.07263156875684765	0.42077355257842575	0.5182331495490904	-0.08560667470537325	0.3591313089028358	0.7354729143068164	0.07015014046475075	0.3150677373673532	0.9123533145745734	0.16581399360913204	0.32730045118224715	0.9229255526396274	0.17275053656889788	0.35032198944385434	0.9878363288750498	0.1380384770329185	0.34796408117821287	1.0090651332688108
43	0.7288135593220338	0.323757706058462	0.5406248186440743	1.018640848368933	0.31985408611964616	0.6571740252423046	1.4071217130461355	0.3235990989846247	0.7826750711741706	1.7722324373101057	0.2862135415434452	0.605633681916383	1.8598540509289503	0.3584882426191131	0.6568389086175362	1.8559268969920142	0.2864970815398474	0.882596876614927	1.8406784245294077	0.12717074047566257	0.5151107351186299	1.0114271052766695	0.10726129473922219	0.6275690191219153	1.4021863359155506	0.09456339997573639	0.7456132973918055	1.7765454606465871	0.13298821567074617	0.5809844353094903	1.8630022448716226	0.06254937666060345	0.6238659733601363	1.8477700881153352	0.11339341353132697	0.8420766703023865	1.8263441963362448	0.23671828550345675	0.39280816212661496	0.4505433053092841	0.24564799709687302	0.286974781310092	0.21749567726384206	0.25898974067417313	0.23744900955821235	0.3540584797699944	0.3982786620556677	0.4318960785137216	0.5087841178742945	0.6009485323655603	0.4296233490194277	0.7012564684762462	0.4600419184056661	0.4109321861715056	0.8929121133859966	0.34789814223831955	0.44875639760142627	0.9347291939534879	0.35101846052933167	0.4333047734152347	0.9642337895599666	0.3733890997672977	0.47524541374525164	0.9887853375971543	0.07216069116948225	0.42895683574256943	0.5081499836654972	-0.10165079037073525	0.35289481732775796	0.7110161697821094	0.03614797694788348	0.29276286050196604	0.901141278484966	0.13192086928852453	0.3217863909296746	0.9265326981823393	0.1312488851811761	0.32891253841678963	0.9870566632889227	0.08728647611100598	0.33310428719787255	1.0041929728564085
44	0.7457627118644068	0.3256495697191803	0.5363935937857895	1.0106778086201245	0.321124635021216	0.6566321939140143	1.4041932494098022	0.3229028775992565	0.7848088537004126	1.774447885355256	0.28630869752537275	0.6059511173564717	1.8618005675201554	0.35854352306009096	0.6565838466122695	1.8564387458449452	0.28642807164314954	0.8822201899872304	1.8403398566681577	0.13186311078871135	0.5009224990165994	0.9993236746489504	0.10714903187080045	0.6260634191908132	1.3940394496250206	0.09491366207067642	0.746284742342331	1.7767029223617132	0.13221363112414358	0.5786883022030707	1.8640615524240018	0.06243208594664555	0.6240851913312486	1.8479757584389063	0.11463346876730998	0.8444406669444113	1.8270459411625994	0.23875045110326443	0.3977863643092609	0.44660664491156987	0.24178249249932637	0.2930177889158983	0.21576289961701672	0.25341952493868813	0.24844270175539773	0.351201700416943	0.3973665768251657	0.4386746846892815	0.4986031941159691	0.6216605572067668	0.41188096752835734	0.6765706968816083	0.49365243458525165	0.37971156355875313	0.8742679952558653	0.39521361255251697	0.4395881608217916	0.9309479004396437	0.4031843011687129	0.41638997387862475	0.9577499352186971	0.4213276759231609	0.4684346957495146	0.9768552205653976	0.07175489255229558	0.4344407015106471	0.4984369963465763	-0.11775268970739741	0.34447762083242484	0.6829112157324095	-0.00039570238695411757	0.2632604618897807	0.885185093955747	0.0924244428349564	0.303233130502553	0.925916476208696	0.08398561374872214	0.297874038744811	0.9802856289034819	0.03465989551650289	0.3142896345219282	0.999663087884675
45	0.7627118644067796	0.32780229662852806	0.5310971638246732	0.9961883705683351	0.32163726148002686	0.6556556755059735	1.4001815226630197	0.3214721135543522	0.7892997834336859	1.7743134164502792	0.28655084834165545	0.6064795994948361	1.863972659881218	0.35853296561500525	0.6565766580912804	1.8565159708524213	0.2863270806132982	0.8821399659471022	1.8398577096784168	0.13598535342377835	0.5037951899127073	0.9856398102100495	0.1071167472813225	0.6242961397281745	1.386886345076197	0.09481743086141037	0.7460818966996661	1.77665688990722	0.13192219137089162	0.5807658702853999	1.8659041693352307	0.062319880150487436	0.6242219390553104	1.8481403499028843	0.11502890118680487	0.8478774373553237	1.828954547990819	0.24094148250954173	0.4022208079952167	0.44308815159973497	0.23809306445317896	0.2975616065968524	0.2148684307215718	0.24626092186808948	0.26518090610800954	0.34742260723969526	0.3973121076070203	0.442654435998845	0.4896103188296945	0.6378020030745446	0.39213490898822384	0.6499633241651619	0.530902349356234	0.3451238606095476	0.8518907513444006	0.4548962756716569	0.4166791717346232	0.9200125379001963	0.4655920584263785	0.4083865993728699	0.9495320942998225	0.47420934706872725	0.4515979143835238	0.9656154245740093	0.07133557546239555	0.4367054945853429	0.49068973010299355	-0.13337497880975482	0.3337916039829535	0.6535323599291994	-0.038287309301927634	0.22964375660203676	0.8647328785514985	0.048473547295815086	0.27735627394462503	0.9207228876555338	0.030157253769519984	0.2612975275370899	0.9682310539399469	-0.01992399767362734	0.2827091423052097	0.9925330675993923
46	0.7796610169491526	0.3288810107369485	0.5281010516642854	0.9795863330625867	0.32172398463934343	0.6547697922875313	1.3961415967419515	0.31976846438940343	0.7946340018938717	1.7705743334943767	0.2866499836292305	0.6071536661802225	1.8655716734114824	0.3584907430274555	0.6566714020945054	1.8564621630581049	0.2862297674711155	0.881999100654878	1.8392521494596485	0.13870802947651925	0.5153689497250561	0.9729167657599951	0.10726818240810138	0.6228638196847093	1.3823405041028578	0.09425947500257822	0.7450067817081821	1.7758866641113928	0.13235571767537554	0.585490388094586	1.8678557840361836	0.062257170469775885	0.6242366858059267	1.8481411993733485	0.11439149037188104	0.8470722232809158	1.8302802621153746	0.24285954672484322	0.4074647000702063	0.440436760227587	0.23428057879062855	0.30014206633297436	0.21458235901574663	0.23835137160149705	0.28351323550099533	0.3426673852964215	0.3973835031893768	0.4433543392237983	0.4827774833722149	0.6472352926356097	0.37692127909595774	0.6219174867991916	0.5702188631405407	0.3114315137056654	0.8260501607912454	0.5200085974053151	0.38453257678222363	0.9001544347181767	0.5338645277534948	0.39594349663029726	0.9362175813934875	0.5357183333204002	0.4155989061736275	0.9550524197201353	0.07094819757213083	0.4374662140349844	0.4857777865228814	-0.14619924449858343	0.32541594592631534	0.6242007732230681	-0.07834057212924349	0.19985000743366407	0.8410200333013484	0.0014743389471622934	0.24932651961451247	0.9103383032328562	-0.027229393318311847	0.2259078747941362	0.9508317563275192	-0.07759692766902569	0.2351877499876177	0.9773351837162529
47	0.7966101694915254	0.3286805742292467	0.5288178660447	0.9663008620019091	0.3217235232952536	0.6542036617674083	1.3935067563378563	0.318635930905568	0.7980527092773456	1.7655338651525274	0.28592551711183956	0.608666631423979	1.866045421491707	0.35846910280722094	0.6567988477333371	1.8564991516908727	0.2862118264086237	0.8821007764110906	1.838964811040441	0.14016930493521587	0.5237051197822652	0.9633855066261658	0.1076178109230386	0.6223546951810935	1.3805969959973643	0.09323626075040442	0.7435767656227226	1.7741144317238968	0.13323697943575052	0.5895940226796801	1.8692188533394578	0.06225249002102064	0.6241480612894987	1.8479911045124144	0.11332147671296187	0.8420901297068372	1.8300286564769421	0.24380600268255012	0.41286313655522067	0.4380945598024618	0.23023949091343554	0.3011623261075009	0.21433552889025365	0.23099168823203634	0.2975000716192378	0.3383192305940688	0.3966577790850431	0.4428530676493747	0.4780660993739167	0.6510245749620205	0.36804631042999414	0.5931511743437299	0.6120499237762586	0.2779830466313175	0.7975161750387996	0.5799734135184678	0.3468650948694362	0.8741066821653332	0.5992821857305489	0.36604855316959334	0.9152701494637736	0.6050785541452351	0.35739603358531546	0.9406828904216656	0.07049072346504731	0.43793247016349107	0.48307047779570045	-0.1541418828104608	0.3213857474820809	0.594757335207938	-0.12017864412437342	0.1764865450165435	0.8125942334264367	-0.04716171561352668	0.21583253225268556	0.8917207462041343	-0.08392701801995837	0.18785469658078735	0.9239968085384536	-0.13834680842366534	0.17581349707998797	0.9475375503383394
48	0.8135593220338984	0.3281546404471102	0.531061621165692	0.9595604556587883	0.32176096400393267	0.6537809170989332	1.3927544505855265	0.31834469707435387	0.7987334446023546	1.7632732876345654	0.2838694040138849	0.6121115747290659	1.866137157228085	0.3584869292562976	0.6568436946487342	1.8565418270833458	0.2862609691564826	0.884050444225001	1.8394532415318232	0.1411506452220872	0.5240668457601054	0.9583900287771565	0.10809090844020189	0.6227386345925329	1.3805823595451185	0.09177671980797023	0.7425426542653853	1.7720700200407509	0.1340219120021237	0.5915711065146796	1.8697647357907203	0.06228492775371556	0.624046749288926	1.8478357044438094	0.11298303155087633	0.8383831676505267	1.8292423440073116	0.24344060761110003	0.4162785286695772	0.43503779858056624	0.226446977204501	0.30243643591194824	0.21342698248869552	0.22493163354653067	0.3039395473440892	0.3352448809066635	0.3951857298094663	0.4425987695738877	0.4749826791547463	0.6513367789185278	0.3646943202531405	0.5657406304412025	0.6563564609583096	0.2443606348594118	0.7643963216446843	0.6303261627273685	0.2989440846893092	0.8442908890523826	0.6545358407656644	0.3166548936962743	0.8846281731665104	0.6739603595617696	0.2815341331643478	0.9132283723144531	0.07024352086902919	0.4384408358499393	0.48121201958121773	-0.15716785006675713	0.32119472450169706	0.5670978404199458	-0.16109840668505968	0.15810677140688698	0.7752195165690974	-0.09527022831229826	0.17175485072288676	0.8595457243734085	-0.13803040631793675	0.13830634824907423	0.8821191553984069	-0.19839111291021871	0.1156260943658846	0.8987133180754634
